<?xml version="1.0" encoding="utf-8"?>
<!-- Generator: Adobe Illustrator 15.0.2, SVG Export Plug-In . SVG Version: 6.00 Build 0)  -->
<!DOCTYPE svg PUBLIC "-//W3C//DTD SVG 1.1//EN" "http://www.w3.org/Graphics/SVG/1.1/DTD/svg11.dtd">
<svg version="1.1" id="Layer_1" xmlns="http://www.w3.org/2000/svg" xmlns:xlink="http://www.w3.org/1999/xlink" x="0px" y="0px"
	 width="640px" height="192px" viewBox="30 428 640 192" enable-background="new 30 428 640 192" xml:space="preserve">
<g>
	<path fill="#555555" d="M638,620H286c-17.6,0-32-14.4-32-32V460c0-17.6,14.4-32,32-32h352c17.6,0,32,14.4,32,32v128
		C670,605.6,655.6,620,638,620z"/>
	<path fill="#555555" d="M190,620H62c-17.6,0-32-14.4-32-32V460c0-17.6,14.4-32,32-32h128c17.6,0,32,14.4,32,32v128
		C222,605.6,207.6,620,190,620z"/>
</g>
</svg>
