<?xml version="1.0" encoding="utf-8"?>
<!-- Generator: Adobe Illustrator 15.0.2, SVG Export Plug-In . SVG Version: 6.00 Build 0)  -->
<!DOCTYPE svg PUBLIC "-//W3C//DTD SVG 1.1//EN" "http://www.w3.org/Graphics/SVG/1.1/DTD/svg11.dtd">
<svg version="1.1" id="Layer_1" xmlns="http://www.w3.org/2000/svg" xmlns:xlink="http://www.w3.org/1999/xlink" x="0px" y="0px"
	 width="640px" height="192px" viewBox="30 428 640 192" enable-background="new 30 428 640 192" xml:space="preserve">
<path fill="#555555" d="M638,428H62c-17.6,0-32,14.4-32,32v128c0,17.6,14.4,32,32,32h576c17.6,0,32-14.4,32-32V460
	C670,442.4,655.6,428,638,428z M654,460v128c0,3.2,0,4.8-1.6,8L382,524l270.4-72C654,455.2,654,456.8,654,460z M46,588V460
	c0-3.2,0-4.8,1.6-8L318,524L47.6,596C46,592.8,46,591.2,46,588z M78,444h544l-272,72L78,444z M350,532l272,72H78L350,532z"/>
</svg>
