<?xml version="1.0" encoding="utf-8"?>
<!-- Generator: Adobe Illustrator 15.0.2, SVG Export Plug-In . SVG Version: 6.00 Build 0)  -->
<!DOCTYPE svg PUBLIC "-//W3C//DTD SVG 1.1//EN" "http://www.w3.org/Graphics/SVG/1.1/DTD/svg11.dtd">
<svg version="1.1" id="Layer_1" xmlns="http://www.w3.org/2000/svg" xmlns:xlink="http://www.w3.org/1999/xlink" x="0px" y="0px"
	 width="16px" height="16px" viewBox="0 0 16 16" enable-background="new 0 0 16 16" xml:space="preserve">
<path opacity="0.75" fill="#FFFFFF" d="M9.381,13.21c-3.601,0-6.445-3.052-6.445-6.692S5.78,0,9.381,0
	c3.602,0,6.62,2.877,6.62,6.518S12.98,13.21,9.381,13.21z M9.381,1.057c-3.024,0-5.4,2.402-5.4,5.461c0,3.058,2.376,5.637,5.4,5.637
	c3.023,0,5.575-2.579,5.575-5.637C14.956,3.459,12.404,1.057,9.381,1.057z M5.675,11.77l-4.197,4.232L0,14.507l4.232-4.269
	C4.645,10.812,5.13,11.328,5.675,11.77z"/>
</svg>
